HIERARCHY
ROOT Hips
{
	OFFSET 0.000000 0.000000 0.000000
	CHANNELS 6 Xposition Yposition Zposition Yrotation Xrotation Zrotation 
	JOINT LeftHip
	{
		OFFSET 0.085397 -0.001024 0.000114
		CHANNELS 3 Yrotation Xrotation Zrotation
		JOINT LeftKnee
		{
			OFFSET 0.000000 -0.410205 0.000000
			CHANNELS 3 Yrotation Xrotation Zrotation
			JOINT LeftAnkle
			{
				OFFSET 0.000000 -0.492465 0.000077
				CHANNELS 3 Yrotation Xrotation Zrotation
				JOINT LeftToe
				{
					OFFSET 0.000000 -0.086216 0.191193
					CHANNELS 3 Yrotation Xrotation Zrotation
					End Site
					{
						OFFSET 0.000000 0.000000 0.000000
					}
				}
			}
		}
	}
	JOINT RightHip
	{
		OFFSET -0.085397 -0.000998 0.000111
		CHANNELS 3 Yrotation Xrotation Zrotation
		JOINT RightKnee
		{
			OFFSET 0.000000 -0.410205 0.000000
			CHANNELS 3 Yrotation Xrotation Zrotation
			JOINT RightAnkle
			{
				OFFSET 0.000000 -0.492465 0.000077
				CHANNELS 3 Yrotation Xrotation Zrotation
				JOINT RightToe
				{
					OFFSET 0.000000 -0.086216 0.191193
					CHANNELS 3 Yrotation Xrotation Zrotation
					End Site
					{
						OFFSET 0.000000 0.000000 0.000000
					}
				}
			}
		}
	}
	JOINT Chest
	{
		OFFSET 0.000000 0.105887 -0.011765
		CHANNELS 3 Yrotation Xrotation Zrotation
		JOINT Chest3
		{
			OFFSET 0.000000 0.233831 -0.010941
			CHANNELS 3 Yrotation Xrotation Zrotation
			JOINT Chest4
			{
				OFFSET 0.000000 0.111697 0.000413
				CHANNELS 3 Yrotation Xrotation Zrotation
				JOINT Neck
				{
					OFFSET 0.000000 0.151984 0.000000
					CHANNELS 3 Yrotation Xrotation Zrotation
					JOINT Head
					{
						OFFSET 0.000000 0.085950 0.000546
						CHANNELS 3 Yrotation Xrotation Zrotation
						End Site
						{
							OFFSET 0.000000 0.000000 0.000000
						}
					}
				}
				JOINT LeftCollar
				{
					OFFSET 0.029156 0.084949 0.000000
					CHANNELS 3 Yrotation Xrotation Zrotation
					JOINT LeftShoulder
					{
						OFFSET 0.131330 0.000000 0.000000
						CHANNELS 3 Yrotation Xrotation Zrotation
						JOINT LeftElbow
						{
							OFFSET 0.323986 0.000000 0.000000
							CHANNELS 3 Yrotation Xrotation Zrotation
							JOINT LeftWrist
							{
								OFFSET 0.253224 0.000000 -0.000037
								CHANNELS 3 Yrotation Xrotation Zrotation
								End Site
								{
									OFFSET 0.000000 0.000000 0.000000
								}
							}
						}
					}
				}
				JOINT RightCollar
				{
					OFFSET -0.029156 0.084949 0.000000
					CHANNELS 3 Yrotation Xrotation Zrotation
					JOINT RightShoulder
					{
						OFFSET -0.131330 0.000000 0.000000
						CHANNELS 3 Yrotation Xrotation Zrotation
						JOINT RightElbow
						{
							OFFSET -0.323986 0.000000 0.000000
							CHANNELS 3 Yrotation Xrotation Zrotation
							JOINT RightWrist
							{
								OFFSET -0.253224 0.000000 -0.000037
								CHANNELS 3 Yrotation Xrotation Zrotation
								End Site
								{
									OFFSET 0.000000 0.000000 0.000000
								}
							}
						}
					}
				}
			}
		}
	}
}
MOTION
Frames: 10
Frame Time: 0.016667
0.000000 0.000000 0.000000 -150.373041 0.455109 1.904428 8.760566 -17.898711 5.880605 -3.377843 53.559643 -2.447656 5.699692 -13.437507 -18.244110 -0.065915 -9.927650 5.888943 -2.444933 -27.201301 -7.341698 2.746718 38.144879 0.968362 -4.652251 -15.589162 8.509542 0.000000 -0.000000 0.000000 0.299122 -14.167468 4.910358 -0.139685 -18.407708 4.481794 0.233577 1.113142 1.655861 -10.251605 20.980186 -2.103548 -17.996749 3.216036 -0.876800 6.072460 -3.710139 -28.205775 -3.433971 4.160972 -61.378703 -69.118062 -45.165221 -68.365642 14.027377 14.545914 4.166766 4.164729 5.770633 -20.144319 -10.704935 -39.667851 68.106409 80.088227 -19.420504 9.713796 0.492244 5.080078 -8.687758 
0.000000 0.000000 0.000000 -151.392485 0.709978 1.561602 8.669497 -17.700010 5.115738 -4.492504 55.042645 -3.298394 4.992230 -14.398325 -17.838990 -0.252924 -13.198374 8.327157 -2.224452 -28.770288 -7.182174 3.070585 39.286501 1.405341 -4.046990 -15.289496 8.686998 0.000000 -0.000000 0.000000 0.154308 -13.846284 5.207654 -0.292891 -18.120656 4.748934 0.190922 1.219057 1.746329 -10.126173 20.957585 -1.956948 -17.812511 3.182981 -0.644312 6.169767 -3.805741 -28.145770 -4.454379 3.782952 -61.833552 -70.724752 -45.302691 -66.563100 13.758798 14.564624 4.656443 3.757069 5.701676 -20.313957 -10.678242 -39.979556 68.886359 80.520662 -19.429840 10.315127 0.385258 4.869962 -8.230206 
0.000000 0.000000 0.000000 -152.437516 1.035650 1.164592 8.501473 -17.246956 4.289670 -4.298638 55.377079 -3.301117 5.857231 -17.234027 -16.592858 -0.153442 -12.084963 8.168377 -1.702617 -30.584906 -7.086947 2.919386 40.618301 1.722628 -3.182981 -14.874894 8.776398 0.000000 -0.000000 0.000000 0.030765 -13.541491 5.490010 -0.426294 -17.848133 5.002656 0.154530 1.319547 1.833249 -10.015478 20.984172 -1.819480 -17.649981 3.240817 -0.430233 6.133593 -3.807442 -28.154056 -5.210525 3.262463 -62.186299 -72.340601 -45.256034 -64.814154 13.544891 14.617450 5.235195 3.541618 5.912846 -20.198392 -10.885916 -40.360388 69.642934 81.024860 -19.446049 10.821589 0.169678 4.745758 -7.302378 
0.000000 0.000000 0.000000 -153.492659 1.406914 0.710148 8.337194 -16.684537 3.435565 -3.323879 54.952536 -2.717717 7.597350 -21.125192 -14.875333 0.034368 -8.837763 6.542656 -1.019741 -32.587731 -7.023925 2.472331 42.116711 1.957840 -2.187815 -14.412322 8.815225 0.000000 -0.000000 0.000000 -0.074342 -13.240022 5.761641 -0.542668 -17.578624 5.246796 0.123571 1.418918 1.917884 -9.920088 21.051088 -1.684863 -17.512548 3.373899 -0.221737 6.057797 -3.774940 -28.176842 -5.837552 2.703969 -62.510187 -73.864149 -45.076818 -63.152453 13.397039 14.711246 5.853848 3.366510 6.279046 -19.965798 -11.312238 -40.743829 70.505749 81.544605 -19.501552 11.352239 -0.104947 4.703455 -6.080654 
0.000000 0.000000 0.000000 -154.505476 1.806596 0.255636 8.510028 -16.282052 2.626836 -2.393807 54.141156 -1.906412 9.302423 -24.459718 -13.274439 0.072856 -6.351410 4.785490 -0.382777 -34.526013 -6.961154 1.995000 43.491834 2.148178 -1.334917 -14.097488 8.860035 0.000000 -0.000000 0.000000 -0.155375 -12.960441 5.994363 -0.634400 -17.328653 5.455786 0.099577 1.511205 1.991055 -9.818476 21.170974 -1.544365 -17.362755 3.605005 -0.010474 5.969227 -3.732222 -28.201983 -6.342025 2.276741 -62.794001 -74.956723 -44.912596 -61.767994 13.353451 14.808013 6.370723 3.024298 6.550418 -19.824481 -11.808361 -40.858824 71.573912 81.974394 -19.607614 12.005331 -0.320993 4.770469 -4.953228 
0.000000 0.000000 0.000000 -155.427373 2.312215 -0.206438 9.581712 -16.021039 1.788558 -1.820071 52.571644 -0.674826 10.692324 -26.693760 -11.821550 -0.012448 -5.856633 3.133455 0.178333 -36.431910 -6.900379 1.525620 44.723015 2.324030 -0.705155 -14.052926 8.932456 0.000000 -0.000000 0.000000 -0.222094 -12.742537 6.179929 -0.709220 -17.133820 5.622387 0.079757 1.583024 2.049375 -9.693474 21.337963 -1.376502 -17.175465 3.924520 0.238045 5.848221 -3.694369 -28.232122 -6.750037 2.060817 -63.048992 -75.620558 -44.840347 -60.622958 13.381070 14.899545 6.634614 2.298416 6.566096 -19.907693 -12.162510 -40.574092 72.859564 82.314187 -19.743142 12.788041 -0.418718 5.001114 -3.985288 
0.000000 0.000000 0.000000 -156.308503 2.847651 -0.670185 10.993046 -15.904772 0.990936 -1.406822 50.623316 0.691238 12.075744 -28.392456 -10.463378 -0.047314 -6.098903 1.348226 0.697857 -38.272122 -6.844063 1.026469 45.829679 2.464994 -0.215370 -14.158377 9.010644 0.000000 -0.000000 0.000000 -0.267497 -12.549641 6.329863 -0.762401 -16.961411 5.756930 0.066113 1.646692 2.097058 -9.560275 21.557432 -1.204523 -16.971526 4.340713 0.485728 5.714440 -3.645787 -28.263965 -7.032544 1.977215 -63.283900 -75.876931 -44.836262 -59.733761 13.508990 14.987509 6.799670 1.398012 6.482912 -20.061697 -12.517896 -40.005776 74.288746 82.561345 -19.911383 13.698222 -0.455511 5.341968 -3.120259 
0.000000 0.000000 0.000000 -157.239639 3.168288 -1.052364 11.406998 -16.247272 0.546667 -0.939401 49.829817 1.353934 13.604440 -29.512694 -9.613007 -0.002074 -6.258833 0.037932 1.062826 -39.689268 -6.737344 0.673605 46.576063 2.580259 0.108309 -14.247809 9.084552 0.000000 -0.000000 0.000000 -0.261669 -12.286817 6.443299 -0.767851 -16.726654 5.858096 0.067264 1.734383 2.135520 -9.447152 21.857982 -1.087865 -16.784654 4.901464 0.630607 5.654606 -3.564864 -28.278783 -7.110581 1.954751 -63.490282 -75.432538 -44.916490 -59.351859 13.856392 15.044341 7.186369 0.750115 6.527530 -20.072565 -13.252796 -39.243206 75.824635 82.598458 -20.147052 14.827261 -0.495282 5.641475 -2.561110 
0.000000 0.000000 0.000000 -158.216101 3.071464 -1.310667 9.548171 -17.454500 0.785381 -0.151661 51.413949 0.735641 15.832206 -29.837328 -9.707175 0.022643 -5.960784 -0.442419 1.263089 -40.435282 -6.568746 0.549922 46.846712 2.690060 0.170754 -14.229580 9.139691 0.000000 -0.000000 0.000000 -0.199490 -11.837189 6.514288 -0.720838 -16.326015 5.919766 0.083381 1.884955 2.163227 -9.389931 22.243159 -1.055925 -16.671795 5.612456 0.628614 5.686623 -3.369222 -28.310861 -7.007021 1.859175 -63.639544 -74.060416 -45.094178 -59.572926 14.568321 15.076138 7.932532 0.666059 6.851623 -19.770033 -14.888764 -38.325200 77.495079 82.355690 -20.544194 16.450341 -0.579458 5.797308 -2.500701 
0.000000 0.000000 0.000000 -159.236631 2.764102 -1.473468 6.639525 -19.071090 1.499807 0.691055 54.093751 -0.675320 18.288124 -29.523983 -10.360245 0.016079 -5.595796 -0.434793 1.321052 -40.752223 -6.350338 0.587255 46.752101 2.810685 0.067391 -14.197812 9.186437 0.000000 -0.000000 0.000000 -0.087328 -11.319739 6.544056 -0.625823 -15.865291 5.943965 0.114493 2.058699 2.180015 -9.355187 22.707496 -1.082480 -16.580482 6.464078 0.518414 5.794030 -3.142565 -28.330857 -6.696771 1.821978 -63.772919 -71.972188 -45.328667 -60.306444 15.465033 15.057952 8.930650 0.846101 7.303794 -19.344673 -16.878316 -37.180344 79.265478 81.860356 -20.937512 18.321165 -0.662103 5.880726 -2.742567 
